<?xml version="1.0" encoding="utf-8"?>
<svg version="1.1" width="270" height="616" viewBox="-124.284 -11.922 533.096 531.896" id="Layer_1" xmlns="http://www.w3.org/2000/svg">
 <ellipse style="stroke: rgb(0, 0, 0); paint-order: stroke; fill: rgb(255, 255, 255);" cx="230.546" cy="276.555" rx="260.371" ry="260.349" transform="matrix(0.999958, 0.00918, 0, 1.000042, -87.687724, -25.239545)"/>
 <path d="M 198.5 224.1 C 199.7 221.9 200.7 219.4 202.3 217.5 C 213 204 215.2 188.4 206.7 177.1 C 202.2 171 196.3 166 190.7 161 C 187 157.8 182.6 155.6 178.4 153 C 173.1 167.1 177.3 183.3 194.6 199.5 C 189.4 196.4 183.6 193.9 179.1 189.9 C 172.5 184 165.8 177.7 161 170.2 C 154.8 160.7 156.8 150.3 162.8 141 C 157.2 132.7 149.7 125.3 153.4 114.7 C 157.2 120.2 161.3 126.2 165.6 131.9 C 166.3 132.9 168.8 133.5 169.7 132.9 C 180.5 125.1 191.4 117.6 201.6 109 C 209.6 102.2 213.9 92.6 212.8 80.6 C 218.6 87.6 219.9 96.4 215.2 104.7 C 211.3 111.6 206.2 117.6 201.3 123.7 C 195.8 130.5 190 137 184 144 C 189.1 146.7 194.7 149.6 200.3 152.7 C 206.1 155.8 211.9 158.9 217.5 162.4 C 224.3 166.7 228.1 173.5 229.6 181.8 C 229.6 182.5 229.6 183.3 229.6 184 C 228 194.7 222.7 203 215.2 209.8 C 209.7 214.6 204 219.3 198.5 224.1 Z" id="path15" style="fill-rule: evenodd; paint-order: stroke;"/>
 <path d="M 38.5 181.6 C 39.1 180.3 39.7 178.9 40.3 177.5 C 51.8 201.5 59.4 207.6 77.8 215.3 C 71.9 215.7 66.9 216.1 61.8 216.5 C 48.2 217.6 43 209.8 39.5 197.6 C 39.2 196.6 38.8 195.7 38.4 194.7 C 38.5 190.3 38.5 185.9 38.5 181.6 Z" id="path17" style="fill-rule: evenodd; paint-order: stroke;"/>
 <path d="M 115.5 65 C 124.6 70.1 126.4 79.9 121.5 99.9 C 126.3 96.8 130.3 94.2 134.3 91.5 C 151 79.8 167.3 67.6 181 51.8 C 187.6 44.1 192.4 35.4 191.6 24.2 C 191.5 22.3 191.1 20.3 190.8 18.4 C 196.5 21.6 199.7 29.8 198.9 38.3 C 197.5 55.4 188.3 67.6 177.4 78.6 C 166.1 89.9 154.3 100.6 143.4 112.2 C 131.8 124.6 124.7 139.4 126.4 157.9 C 127.6 170.8 133.5 181 141.1 190.3 C 144 193.8 147.3 196.9 149.9 200.6 C 125.1 183.9 102.2 165.6 102.2 127.8 C 98.7 131.5 95.1 135 91.9 138.9 C 84.2 148 78.1 158.2 77.5 170.9 C 76.7 187 84.6 198.7 95.2 208.6 C 99.6 212.7 104.4 216.3 110 220.9 C 92.8 213.5 76.8 206.6 63.8 193.9 C 48.4 178.7 46.1 158.2 62.8 141.5 C 73.1 131.3 84.3 122.2 94.9 112.2 C 100.4 107 106 101.6 110.5 95.4 C 117 86.8 119.5 76.5 115.5 65 Z" id="path21" style="fill-rule: evenodd; paint-order: stroke;"/>
 <path d="M 128.3 69.5 C 128.7 62.3 132.1 59.4 136.4 57.4 C 141 55.3 145.6 55.7 149.5 59.2 C 152.8 62.2 152 69 148.3 72.8 C 144.1 77.1 135.8 78.1 131.3 74.4 C 129.7 73.1 128.9 70.5 128.3 69.5 Z" id="path23" style="fill-rule: evenodd; paint-order: stroke;"/>
 <path d="M 175.9 106.2 C 181.7 106.3 184.3 108.3 184.4 112.8 C 184.5 118.4 179.7 122.8 173.5 122.7 C 168.2 122.6 164.6 119.4 164.6 114.7 C 164.6 109.2 168.9 106 175.9 106.2 Z" id="path25" style="fill-rule: evenodd; paint-order: stroke;"/>
 <path d="M 48 233 C 48 240.1 48.4 241.7 51 246.3 C 52.7 249.3 54 252.1 54 252.6 C 54 253.1 52 254.6 49.6 255.8 C 45.1 258.2 40 264.3 37.5 270.4 C 35.4 275.3 35.6 285.6 37.9 290.6 C 43.6 303.2 60.5 307.5 71.1 299 C 73.1 297.4 75 296.4 75.4 296.7 C 75.7 297.1 76 314.4 76 335.2 L 76 373 L 84.5 373 L 93 373 L 93 350.7 C 93 332.2 93.3 328.1 94.6 326.2 C 96.4 323.7 100.6 323.3 103.6 325.4 C 105.4 326.7 105.5 328.4 105.8 349.9 L 106.1 373 L 114.6 373 L 123 373 L 123 349.6 L 123.7 326.9 L 124.9 324 C 127 321.2 137.5 320.1 140.5 326 C 141.7 328.3 142 333.2 142 351 L 142 373 L 150.5 373 L 159 373 L 159 350.9 C 159 337.6 159.4 328.1 160 326.9 C 161.4 324.4 168.5 324.2 169.4 326.6 C 169.7 327.5 170 338.3 170 350.6 L 170 373 L 178.5 373 L 187 373 L 187 335.5 C 187 314.9 187.3 298 187.6 298 C 187.9 298 189.4 298.9 190.9 300 C 195.3 303 202.1 304.2 208.1 302.9 C 212.2 302 214.3 300.8 218.1 297 C 225 290.1 226.7 282 223.4 271.1 C 221.9 265.9 215.8 258.4 210.1 254.9 L 207.6 253.4 L 211.3 247.3 C 214.8 241.6 215 240.7 215 233.1 L 215 225 L 131.5 225 L 48 225 L 48 233 Z M 202.2 261 C 216.6 265 221.4 285.9 209.7 293 C 200.8 298.5 190 291.9 190 281.1 C 190 275.3 195.2 271.6 200.5 273.6 C 202.3 274.3 205.5 279.9 204.6 280.8 C 204.2 281.1 201.7 281.5 198.9 281.6 C 196.1 281.7 193.6 282.1 193.3 282.3 C 192.3 283.4 196.2 289.1 198.6 290 C 203.3 291.8 207 291.2 210.1 288.1 C 215.4 282.8 213.3 272.3 205.9 267.2 C 203 265.2 201.5 264.9 196.3 265.2 C 191 265.5 189.5 266.1 186.9 268.5 C 183.2 272 181 276.7 181 281 L 181 284 L 130.6 284 L 80.3 284 L 79.6 279.1 C 79.1 275.4 78 273.2 75.2 270 C 71.7 266.1 70.9 265.7 65.7 265.2 C 62.3 264.9 58.8 265.3 57 266 C 50.1 268.9 45.8 278.1 48.4 284.3 C 51.5 291.8 58.9 293.3 64.6 287.6 C 66.5 285.7 68 283.8 68 283.2 C 68 282 61.2 280.9 58.3 281.6 C 56.4 282.1 56 281.8 56 280.1 C 56 277.1 60.4 273 63.5 273 C 67.1 273 71 277.2 71 281.1 C 71 296.2 51.9 300.2 45.8 286.3 C 44 282.1 43.9 281.1 45 276.2 C 46.5 269.6 51.5 263.6 57.5 261.5 C 60.8 260.3 73.6 260.1 130 260 C 174.2 260 199.8 260.4 202.2 261 Z" id="path27" style="fill:#010101"/>
 <path d="M 57.7 382.6 L 58 387.3 L 127 387.6 C 203.6 387.8 198.1 387.3 200.2 393.7 C 201.4 397.4 200.1 402.1 197.3 404.8 C 195.5 406.5 193.6 406.6 126.1 406.6 L 56.6 406.6 L 56.6 411.1 L 56.6 415.6 L 129.4 415.6 L 202.2 415.6 L 205.5 413.3 C 210.9 409.6 213.8 404.7 214.1 398.3 C 214.5 392 213.2 388.6 208.6 383.7 C 203.2 377.8 208 378.2 129.2 378.2 L 57.4 378.2 L 57.7 382.6 Z" id="path29" style="fill:#010101"/>
 <path d="M 65.5 392.3 C 65.5 392.9 87.1 393.2 128.3 393.2 C 169.5 393.2 191.1 392.9 191.1 392.3 C 191.1 391.7 169.5 391.4 128.3 391.4 C 87.1 391.4 65.5 391.6 65.5 392.3 Z" id="path31" style="fill:#010101"/>
 <path d="M 65.5 397.2 C 65.5 398.4 73.1 398.5 128.3 398.5 C 183.5 398.5 191.1 398.3 191.1 397.2 C 191.1 396 183.5 395.9 128.3 395.9 C 73.1 395.9 65.5 396 65.5 397.2 Z" id="path33" style="fill:#010101"/>
 <path d="M 65.7 402.2 C 66.1 403.1 79.6 403.4 128.6 403.6 C 183.9 403.8 191.2 403.6 191.2 402.4 C 191.2 401.2 183.7 401.1 128.3 401.1 C 78.4 401.2 65.4 401.4 65.7 402.2 Z" id="path35" style="fill:#010101"/>
 <path d="M 48.2 425.2 L 48.5 430.5 L 125.9 430.8 C 211.8 431 205.7 430.5 208 437.6 C 209.4 441.7 207.9 447 204.7 450 C 202.7 451.9 200.6 452 124.8 452 L 47 452 L 47 457 L 47 462 L 128.7 462 L 210.4 462 L 214.1 459.4 C 220.2 455.2 223.4 449.8 223.8 442.6 C 224.3 435.5 222.8 431.7 217.6 426.2 C 211.5 419.6 216.9 420 128.5 420 L 47.9 420 L 48.2 425.2 Z" id="path37" style="fill:#010101"/>
 <path d="M 57 436 C 57 436.7 81.2 437 127.5 437 C 173.8 437 198 436.7 198 436 C 198 435.3 173.8 435 127.5 435 C 81.2 435 57 435.3 57 436 Z" id="path39" style="fill:#010101"/>
 <path d="M 57 441.5 C 57 442.8 65.5 443 127.5 443 C 189.5 443 198 442.8 198 441.5 C 198 440.2 189.5 440 127.5 440 C 65.5 440 57 440.2 57 441.5 Z" id="path41" style="fill:#010101"/>
 <path d="M 57.2 447.2 C 57.6 448.2 72.8 448.6 127.8 448.8 C 189.8 449 198 448.8 198 447.5 C 198 446.2 189.6 446 127.4 446 C 71.4 446 56.9 446.3 57.2 447.2 Z" id="path43" style="fill:#010101"/>
 <g id="g53"/>
 <g id="g55"/>
 <g id="g57"/>
 <g id="g59"/>
 <g id="g61"/>
 <g id="g63"/>
</svg>